<svg width="50" height="50" viewBox="0 0 50 50" fill="none" xmlns="http://www.w3.org/2000/svg">
<path d="M39.7258 36.4148C37.3883 39.4304 34.1813 41.6556 30.5383 42.7897C26.8953 43.9239 22.992 43.9122 19.3558 42.7564C15.7197 41.6006 12.526 39.3563 10.2065 36.3269C7.88696 33.2975 6.5534 29.629 6.38604 25.8173C6.21868 22.0055 7.2256 18.2342 9.27069 15.0132C11.3158 11.7921 14.3005 9.27661 17.8213 7.80656C21.3422 6.33652 25.2295 5.98285 28.9579 6.79334C32.6862 7.60384 36.0759 9.53943 38.6687 12.3385L31.9521 18.5602C30.6334 17.1365 28.9093 16.152 27.013 15.7398C25.1167 15.3276 23.1396 15.5075 21.3488 16.2552C19.5581 17.0028 18.04 18.2823 16.9998 19.9206C15.9597 21.5588 15.4475 23.4769 15.5327 25.4157C15.6178 27.3544 16.296 29.2202 17.4758 30.7611C18.6555 32.3019 20.2799 33.4433 22.1293 34.0312C23.9787 34.6191 25.964 34.625 27.8169 34.0481C29.6697 33.4713 31.3009 32.3395 32.4898 30.8058L39.7258 36.4148Z" fill="white"/>
</svg>
