<svg width="500" height="500" viewBox="0 0 500 500" fill="none" xmlns="http://www.w3.org/2000/svg">
<path d="M104.29 49.4471L250 2.10292L395.71 49.4471L485.764 173.396V326.604L395.71 450.553L250 497.897L104.29 450.553L14.2359 326.604V173.396L104.29 49.4471Z" stroke="black" stroke-width="4"/>
<path d="M102.06 201.594L249.5 94.4721L396.94 201.594L340.623 374.92H158.377L102.06 201.594Z" stroke="black" stroke-width="4"/>
<path d="M396.94 297.406L249.5 404.528L102.06 297.406L158.377 124.08L340.623 124.08L396.94 297.406Z" stroke="black" stroke-width="4"/>
<path d="M341.5 123.5L395.5 50" stroke="black" stroke-width="4"/>
<path d="M158.5 124L105 49.5" stroke="black" stroke-width="4"/>
<path d="M102.5 297.5L14 326.5" stroke="black" stroke-width="4"/>
<path d="M249.5 404L250 498" stroke="black" stroke-width="4"/>
<path d="M395.5 296.5L485.5 326" stroke="black" stroke-width="4"/>
</svg>
